<?xml version="1.0" encoding="UTF-8" standalone="no"?>
<svg
   xmlns:dc="http://purl.org/dc/elements/1.1/"
   xmlns:cc="http://creativecommons.org/ns#"
   xmlns:rdf="http://www.w3.org/1999/02/22-rdf-syntax-ns#"
   xmlns:svg="http://www.w3.org/2000/svg"
   xmlns="http://www.w3.org/2000/svg"
   xmlns:sodipodi="http://sodipodi.sourceforge.net/DTD/sodipodi-0.dtd"
   xmlns:inkscape="http://www.inkscape.org/namespaces/inkscape"
   width="24"
   height="24"
   version="1.1"
   id="svg16"
   sodipodi:docname="folder-templates.svg"
   inkscape:version="0.92.4 (5da689c313, 2019-01-14)">
  <metadata
     id="metadata22">
    <rdf:RDF>
      <cc:Work
         rdf:about="">
        <dc:format>image/svg+xml</dc:format>
        <dc:type
           rdf:resource="http://purl.org/dc/dcmitype/StillImage" />
        <dc:title></dc:title>
      </cc:Work>
    </rdf:RDF>
  </metadata>
  <defs
     id="defs20" />
  <sodipodi:namedview
     pagecolor="#ffffff"
     bordercolor="#666666"
     borderopacity="1"
     objecttolerance="10"
     gridtolerance="10"
     guidetolerance="10"
     inkscape:pageopacity="0"
     inkscape:pageshadow="2"
     inkscape:window-width="1366"
     inkscape:window-height="717"
     id="namedview18"
     showgrid="false"
     inkscape:zoom="5.9477876"
     inkscape:cx="11.407309"
     inkscape:cy="-0.29962221"
     inkscape:window-x="0"
     inkscape:window-y="31"
     inkscape:window-maximized="1"
     inkscape:current-layer="svg16" />
  <path
     style="fill:#3771c8;stroke-width:0.35529751"
     d="m 10.885404,10.41357 a 4.2635703,4.2635703 0 0 0 -4.2635711,4.263571 4.2635703,4.2635703 0 0 0 4.2635711,4.263569 h 8.882438 v -0.710594 h -6.530675 -2.351763 a 3.5529753,3.5529753 0 0 1 -3.552976,-3.552975 3.5529753,3.5529753 0 0 1 3.552976,-3.552976 z m 0,1.065893 c -1.7660293,0 -3.1976782,1.431649 -3.1976782,3.197678 0,1.766028 1.4316489,3.197678 3.1976782,3.197678 h 8.882438 v -0.710595 h -8.882438 c -1.3735779,0 -2.4870832,-1.113505 -2.4870832,-2.487083 0,-1.373578 1.1135053,-2.487083 2.4870832,-2.487083 0.368966,0.0011 0.733061,0.08432 1.065892,0.243573 v -0.767499 c -0.342112,-0.122324 -0.70257,-0.185452 -1.065892,-0.186669 z m 0,1.065892 a 2.1317852,2.1317852 0 0 0 -2.131786,2.131786 2.1317852,2.1317852 0 0 0 2.131786,2.131785 h 8.882438 v -0.710595 h -8.882438 a 1.4211901,1.4211901 0 0 1 -1.421191,-1.42119 1.4211901,1.4211901 0 0 1 1.421191,-1.421191 1.4211901,1.4211901 0 0 1 1.228968,0.710596 h 0.777907 a 2.1317852,2.1317852 0 0 0 -2.006875,-1.421191 z"
     id="path14"
     inkscape:connector-curvature="0" />
  <path
     style="opacity:0.98999999;fill:#3771c8;fill-opacity:1;stroke:#ffd42c;stroke-width:0;stroke-linecap:round;stroke-linejoin:bevel;stroke-miterlimit:4;stroke-dasharray:none;stroke-dashoffset:0;stroke-opacity:1;paint-order:markers fill stroke"
     d="M 0.17164548,14.093624 V 4.2991324 H 6.6856859 13.199727 V 5.3769951 6.454858 h 5.483041 5.48304 v 8.716629 8.716629 H 12.168727 0.17164548 Z M 22.10381,15.171059 V 8.5160003 l -9.911651,0.023859 -9.9116515,0.023858 -0.024058,6.6311997 -0.024058,6.6312 h 9.9357105 9.935712 z"
     id="path860"
     inkscape:connector-curvature="0" />
</svg>
