<?xml version="1.0" encoding="UTF-8" standalone="no"?>
<svg
   xmlns:dc="http://purl.org/dc/elements/1.1/"
   xmlns:cc="http://creativecommons.org/ns#"
   xmlns:rdf="http://www.w3.org/1999/02/22-rdf-syntax-ns#"
   xmlns:svg="http://www.w3.org/2000/svg"
   xmlns="http://www.w3.org/2000/svg"
   xmlns:sodipodi="http://sodipodi.sourceforge.net/DTD/sodipodi-0.dtd"
   xmlns:inkscape="http://www.inkscape.org/namespaces/inkscape"
   width="64"
   height="64"
   version="1.1"
   id="svg16"
   sodipodi:docname="folder-pictures.svg"
   inkscape:version="0.92.4 (5da689c313, 2019-01-14)">
  <metadata
     id="metadata22">
    <rdf:RDF>
      <cc:Work
         rdf:about="">
        <dc:format>image/svg+xml</dc:format>
        <dc:type
           rdf:resource="http://purl.org/dc/dcmitype/StillImage" />
        <dc:title></dc:title>
      </cc:Work>
    </rdf:RDF>
  </metadata>
  <defs
     id="defs20" />
  <sodipodi:namedview
     pagecolor="#ffffff"
     bordercolor="#666666"
     borderopacity="1"
     objecttolerance="10"
     gridtolerance="10"
     guidetolerance="10"
     inkscape:pageopacity="0"
     inkscape:pageshadow="2"
     inkscape:window-width="1366"
     inkscape:window-height="717"
     id="namedview18"
     showgrid="false"
     inkscape:zoom="13.246121"
     inkscape:cx="25.292947"
     inkscape:cy="3.7093907"
     inkscape:window-x="0"
     inkscape:window-y="31"
     inkscape:window-maximized="1"
     inkscape:current-layer="svg16">
    <inkscape:grid
       type="xygrid"
       id="grid854" />
  </sodipodi:namedview>
  <path
     style="fill:#762cff;fill-opacity:1;stroke-width:1.16796875"
     d="m 21.693976,32.26409 c -0.905176,0 -1.635157,0.72998 -1.635157,1.635156 v 15.417187 c 0,0.905176 0.729981,1.635157 1.635157,1.635157 h 20.089062 c 0.905176,0 1.635156,-0.729981 1.635156,-1.635157 V 33.899246 c 0,-0.905176 -0.72998,-1.635156 -1.635156,-1.635156 z m 5.372656,7.007812 7.007812,7.007813 3.503907,-4.671875 3.503906,4.671875 v 2.335937 h -18.6875 v -4.671875 z"
     id="path14"
     inkscape:connector-curvature="0" />
  <path
     style="opacity:0.98999999;fill:#762cff;fill-opacity:1;stroke:#ffd42c;stroke-width:0;stroke-linecap:round;stroke-linejoin:bevel;stroke-miterlimit:4;stroke-dasharray:none;stroke-dashoffset:0;stroke-opacity:1;paint-order:markers fill stroke"
     d="M 0.21405244,37.93157 V 11.869808 H 17.546995 34.879937 v 2.868041 2.86804 h 14.589599 14.589599 v 23.193722 23.19372 H 32.136593 0.21405244 Z M 58.572448,40.79847 V 23.090299 L 32.198942,23.153794 5.8254369,23.217288 5.7614199,40.861974 5.697404,58.50666 h 26.437527 26.437527 z"
     id="path860"
     inkscape:connector-curvature="0" />
</svg>
