<?xml version="1.0" encoding="UTF-8" standalone="no"?>
<svg
   xmlns:dc="http://purl.org/dc/elements/1.1/"
   xmlns:cc="http://creativecommons.org/ns#"
   xmlns:rdf="http://www.w3.org/1999/02/22-rdf-syntax-ns#"
   xmlns:svg="http://www.w3.org/2000/svg"
   xmlns="http://www.w3.org/2000/svg"
   xmlns:sodipodi="http://sodipodi.sourceforge.net/DTD/sodipodi-0.dtd"
   xmlns:inkscape="http://www.inkscape.org/namespaces/inkscape"
   width="64"
   height="64"
   version="1.1"
   id="svg14"
   sodipodi:docname="folder.svg"
   inkscape:version="0.92.4 (5da689c313, 2019-01-14)">
  <metadata
     id="metadata20">
    <rdf:RDF>
      <cc:Work
         rdf:about="">
        <dc:format>image/svg+xml</dc:format>
        <dc:type
           rdf:resource="http://purl.org/dc/dcmitype/StillImage" />
        <dc:title></dc:title>
      </cc:Work>
    </rdf:RDF>
  </metadata>
  <defs
     id="defs18" />
  <sodipodi:namedview
     pagecolor="#ffffff"
     bordercolor="#666666"
     borderopacity="1"
     objecttolerance="10000"
     gridtolerance="10000"
     guidetolerance="10"
     inkscape:pageopacity="0"
     inkscape:pageshadow="2"
     inkscape:window-width="1366"
     inkscape:window-height="717"
     id="namedview16"
     showgrid="false"
     inkscape:zoom="5.7250273"
     inkscape:cx="25.707065"
     inkscape:cy="18.701896"
     inkscape:window-x="0"
     inkscape:window-y="31"
     inkscape:window-maximized="1"
     inkscape:current-layer="svg14">
    <inkscape:grid
       type="xygrid"
       id="grid237"
       empspacing="1" />
  </sodipodi:namedview>
  <path
     inkscape:connector-curvature="0"
     style="opacity:0.1;fill:#93ac9d;stroke-width:1.17353308"
     d="m 6.1840825,10.272359 c -1.6253432,0 -2.9338324,1.308488 -2.9338324,2.933832 v 1.173532 c 0,-1.625342 1.3084892,-2.933832 2.9338324,-2.933832 H 26.134142 c 1.625345,0 2.933834,1.30849 2.933834,2.933832 v -1.173532 c 0,-1.625344 -1.308489,-2.933832 -2.933834,-2.933832 z m 22.8838935,5.867664 v 1.173533 h 29.92509 c 1.631212,0 2.933833,1.30849 2.933833,2.933832 v -1.173531 c 0,-1.625345 -1.302621,-2.933834 -2.933833,-2.933834 z"
     id="path12" />
  <path
     style="opacity:0.98999999;fill:#93ac9d;fill-opacity:1;stroke:#ffd42c;stroke-width:0;stroke-linecap:round;stroke-linejoin:bevel;stroke-miterlimit:4;stroke-dasharray:none;stroke-dashoffset:0;stroke-opacity:1;paint-order:markers fill stroke"
     d="M 0.03087788,37.814078 V 11.628157 H 17.397496 34.764113 v 2.881705 2.881704 H 49.382055 64 V 40.695783 64 H 32.01544 0.03087788 Z M 58.502655,40.694637 V 22.902103 l -26.424746,0.06378 -26.424745,0.0638 -0.064146,17.728746 -0.064145,17.728747 h 26.488889 26.488893 z"
     id="path860"
     inkscape:connector-curvature="0" />
</svg>
