<?xml version="1.0" encoding="UTF-8" standalone="no"?>
<svg
   xmlns:dc="http://purl.org/dc/elements/1.1/"
   xmlns:cc="http://creativecommons.org/ns#"
   xmlns:rdf="http://www.w3.org/1999/02/22-rdf-syntax-ns#"
   xmlns:svg="http://www.w3.org/2000/svg"
   xmlns="http://www.w3.org/2000/svg"
   xmlns:sodipodi="http://sodipodi.sourceforge.net/DTD/sodipodi-0.dtd"
   xmlns:inkscape="http://www.inkscape.org/namespaces/inkscape"
   width="64"
   height="64"
   version="1.1"
   id="svg16"
   sodipodi:docname="folder-music.svg"
   inkscape:version="0.92.4 (5da689c313, 2019-01-14)">
  <metadata
     id="metadata22">
    <rdf:RDF>
      <cc:Work
         rdf:about="">
        <dc:format>image/svg+xml</dc:format>
        <dc:type
           rdf:resource="http://purl.org/dc/dcmitype/StillImage" />
        <dc:title></dc:title>
      </cc:Work>
    </rdf:RDF>
  </metadata>
  <defs
     id="defs20" />
  <sodipodi:namedview
     pagecolor="#ffffff"
     bordercolor="#666666"
     borderopacity="1"
     objecttolerance="10"
     gridtolerance="10"
     guidetolerance="10"
     inkscape:pageopacity="0"
     inkscape:pageshadow="2"
     inkscape:window-width="1366"
     inkscape:window-height="717"
     id="namedview18"
     showgrid="false"
     inkscape:zoom="5.9477875"
     inkscape:cx="6.7621055"
     inkscape:cy="12.47444"
     inkscape:window-x="0"
     inkscape:window-y="31"
     inkscape:window-maximized="1"
     inkscape:current-layer="svg16">
    <inkscape:grid
       type="xygrid"
       id="grid854" />
  </sodipodi:namedview>
  <path
     style="fill:#ff2a7f;stroke-width:1.17121172"
     d="M 27.194927,42.852614 C 26.4922,42.430978 25.672352,42.22016 24.852504,42.22016 c -2.576666,0 -4.684847,2.108181 -4.684847,4.684846 0,2.576666 2.108181,4.684846 4.684847,4.684846 2.576665,0 4.684846,-2.10818 4.684846,-4.684846 V 35.19289 h 9.369693 v 7.659724 C 38.204316,42.430978 37.384468,42.22016 36.56462,42.22016 c -2.576665,0 -4.684846,2.108181 -4.684846,4.684846 0,2.576666 2.108181,4.684846 4.684846,4.684846 2.576666,0 4.684846,-2.10818 4.684846,-4.684846 V 30.508043 H 27.194927"
     id="path14"
     inkscape:connector-curvature="0" />
  <path
     style="opacity:0.98999999;fill:#ff2a7f;fill-opacity:1;stroke:#ffd42c;stroke-width:0;stroke-linecap:round;stroke-linejoin:bevel;stroke-miterlimit:4;stroke-dasharray:none;stroke-dashoffset:0;stroke-opacity:1;paint-order:markers fill stroke"
     d="M 0.05944287,37.883938 V 11.749815 H 17.44051 34.821577 v 2.876003 2.876005 H 49.451683 64.08179 V 40.759942 64.01806 H 32.070617 0.05944287 Z M 58.579869,40.758798 V 23.00146 L 32.133138,23.06513 5.6864072,23.1288 5.6222132,40.822475 5.5580192,58.516152 H 32.068938 58.579869 Z"
     id="path860"
     inkscape:connector-curvature="0" />
</svg>
