<?xml version="1.0" encoding="UTF-8" standalone="no"?>
<svg
   xmlns:dc="http://purl.org/dc/elements/1.1/"
   xmlns:cc="http://creativecommons.org/ns#"
   xmlns:rdf="http://www.w3.org/1999/02/22-rdf-syntax-ns#"
   xmlns:svg="http://www.w3.org/2000/svg"
   xmlns="http://www.w3.org/2000/svg"
   xmlns:sodipodi="http://sodipodi.sourceforge.net/DTD/sodipodi-0.dtd"
   xmlns:inkscape="http://www.inkscape.org/namespaces/inkscape"
   width="48"
   height="48"
   version="1.1"
   id="svg16"
   sodipodi:docname="folder-templates.svg"
   inkscape:version="0.92.4 (5da689c313, 2019-01-14)">
  <metadata
     id="metadata22">
    <rdf:RDF>
      <cc:Work
         rdf:about="">
        <dc:format>image/svg+xml</dc:format>
        <dc:type
           rdf:resource="http://purl.org/dc/dcmitype/StillImage" />
        <dc:title></dc:title>
      </cc:Work>
    </rdf:RDF>
  </metadata>
  <defs
     id="defs20" />
  <sodipodi:namedview
     pagecolor="#ffffff"
     bordercolor="#666666"
     borderopacity="1"
     objecttolerance="10"
     gridtolerance="10"
     guidetolerance="10"
     inkscape:pageopacity="0"
     inkscape:pageshadow="2"
     inkscape:window-width="1366"
     inkscape:window-height="717"
     id="namedview18"
     showgrid="false"
     inkscape:zoom="6.6230607"
     inkscape:cx="22.101837"
     inkscape:cy="18.597896"
     inkscape:window-x="0"
     inkscape:window-y="31"
     inkscape:window-maximized="1"
     inkscape:current-layer="svg16" />
  <path
     style="fill:#3771c8;stroke-width:0.71106249"
     d="m 21.613258,20.921295 a 8.5327502,8.5327502 0 0 0 -8.532751,8.532751 8.5327502,8.5327502 0 0 0 8.532751,8.532749 H 39.389821 V 36.564671 H 26.31988 21.613258 a 7.1106252,7.1106252 0 0 1 -7.110626,-7.110625 7.1106252,7.1106252 0 0 1 7.110626,-7.110626 z m 0,2.133188 c -3.534382,0 -6.399563,2.865181 -6.399563,6.399563 0,3.534381 2.865181,6.399563 6.399563,6.399563 H 39.389821 V 34.431484 H 21.613258 c -2.748963,0 -4.977438,-2.228475 -4.977438,-4.977438 0,-2.748963 2.228475,-4.977438 4.977438,-4.977438 0.738418,0.0023 1.467086,0.168756 2.133187,0.487467 V 23.428069 C 23.06177,23.183257 22.34038,23.05692 21.613258,23.054483 Z m 0,2.133187 a 4.2663751,4.2663751 0 0 0 -4.266376,4.266376 4.2663751,4.2663751 0 0 0 4.266376,4.266375 H 39.389821 V 32.298296 H 21.613258 a 2.84425,2.84425 0 0 1 -2.844251,-2.84425 2.84425,2.84425 0 0 1 2.844251,-2.844251 2.84425,2.84425 0 0 1 2.459554,1.422126 H 25.62965 A 4.2663751,4.2663751 0 0 0 21.613258,25.18767 Z"
     id="path14"
     inkscape:connector-curvature="0" />
  <path
     style="opacity:0.98999999;fill:#3771c8;fill-opacity:1;stroke:#ffd42c;stroke-width:0;stroke-linecap:round;stroke-linejoin:bevel;stroke-miterlimit:4;stroke-dasharray:none;stroke-dashoffset:0;stroke-opacity:1;paint-order:markers fill stroke"
     d="M 0.17164577,28.286246 V 8.6843756 H 13.208297 26.244948 v 2.1571434 2.157144 H 37.218244 48.19154 V 30.443389 47.888116 H 24.181593 0.17164577 Z M 44.06483,30.442532 V 17.12366 L 24.228487,17.17141 4.3921444,17.21916 4.3439954,30.490283 4.2958464,43.761406 H 24.180341 44.064837 Z"
     id="path860"
     inkscape:connector-curvature="0" />
</svg>
