<?xml version="1.0" encoding="UTF-8" standalone="no"?>
<svg
   xmlns:dc="http://purl.org/dc/elements/1.1/"
   xmlns:cc="http://creativecommons.org/ns#"
   xmlns:rdf="http://www.w3.org/1999/02/22-rdf-syntax-ns#"
   xmlns:svg="http://www.w3.org/2000/svg"
   xmlns="http://www.w3.org/2000/svg"
   xmlns:sodipodi="http://sodipodi.sourceforge.net/DTD/sodipodi-0.dtd"
   xmlns:inkscape="http://www.inkscape.org/namespaces/inkscape"
   width="24"
   height="24"
   version="1.1"
   id="svg16"
   sodipodi:docname="folder-pictures.svg"
   inkscape:version="0.92.4 (5da689c313, 2019-01-14)">
  <metadata
     id="metadata22">
    <rdf:RDF>
      <cc:Work
         rdf:about="">
        <dc:format>image/svg+xml</dc:format>
        <dc:type
           rdf:resource="http://purl.org/dc/dcmitype/StillImage" />
        <dc:title></dc:title>
      </cc:Work>
    </rdf:RDF>
  </metadata>
  <defs
     id="defs20" />
  <sodipodi:namedview
     pagecolor="#ffffff"
     bordercolor="#666666"
     borderopacity="1"
     objecttolerance="10"
     gridtolerance="10"
     guidetolerance="10"
     inkscape:pageopacity="0"
     inkscape:pageshadow="2"
     inkscape:window-width="1366"
     inkscape:window-height="717"
     id="namedview18"
     showgrid="false"
     inkscape:zoom="6.7028774"
     inkscape:cx="-11.466827"
     inkscape:cy="10.461606"
     inkscape:window-x="0"
     inkscape:window-y="31"
     inkscape:window-maximized="1"
     inkscape:current-layer="svg16">
    <inkscape:grid
       type="xygrid"
       id="grid854" />
  </sodipodi:namedview>
  <path
     style="fill:#762cff;fill-opacity:1;stroke-width:0.43814245"
     d="m 8.1429822,12.084251 c -0.3395603,0 -0.6133986,0.27384 -0.6133986,0.6134 v 5.783481 c 0,0.33956 0.2738383,0.613399 0.6133986,0.613399 h 7.5360518 c 0.339561,0 0.6134,-0.273839 0.6134,-0.613399 v -5.783481 c 0,-0.33956 -0.273839,-0.6134 -0.6134,-0.6134 z m 2.0154568,2.628855 2.628855,2.628855 1.314427,-1.75257 1.314427,1.75257 v 0.876286 H 8.4058689 v -1.752571 z"
     id="path14"
     inkscape:connector-curvature="0" />
  <path
     style="opacity:0.98999999;fill:#762cff;fill-opacity:1;stroke:#ffd42c;stroke-width:0;stroke-linecap:round;stroke-linejoin:bevel;stroke-miterlimit:4;stroke-dasharray:none;stroke-dashoffset:0;stroke-opacity:1;paint-order:markers fill stroke"
     d="M 0.08517611,14.210304 V 4.4337025 H 6.5873179 13.08946 V 5.509597 6.5854909 h 5.473026 5.473026 v 8.7007071 8.700708 H 12.060343 0.08517611 Z M 21.977279,15.285771 V 8.6428688 l -9.893546,0.023817 -9.8935469,0.023817 -0.024015,6.6190872 -0.024015,6.619086 h 9.9175629 9.917563 z"
     id="path860"
     inkscape:connector-curvature="0" />
</svg>
