<?xml version="1.0" encoding="UTF-8" standalone="no"?>
<svg
   xmlns:dc="http://purl.org/dc/elements/1.1/"
   xmlns:cc="http://creativecommons.org/ns#"
   xmlns:rdf="http://www.w3.org/1999/02/22-rdf-syntax-ns#"
   xmlns:svg="http://www.w3.org/2000/svg"
   xmlns="http://www.w3.org/2000/svg"
   xmlns:sodipodi="http://sodipodi.sourceforge.net/DTD/sodipodi-0.dtd"
   xmlns:inkscape="http://www.inkscape.org/namespaces/inkscape"
   width="32"
   height="32"
   version="1.1"
   id="svg16"
   sodipodi:docname="folder-video.svg"
   inkscape:version="0.92.4 (5da689c313, 2019-01-14)">
  <metadata
     id="metadata22">
    <rdf:RDF>
      <cc:Work
         rdf:about="">
        <dc:format>image/svg+xml</dc:format>
        <dc:type
           rdf:resource="http://purl.org/dc/dcmitype/StillImage" />
        <dc:title></dc:title>
      </cc:Work>
    </rdf:RDF>
  </metadata>
  <defs
     id="defs20" />
  <sodipodi:namedview
     pagecolor="#ffffff"
     bordercolor="#666666"
     borderopacity="1"
     objecttolerance="10"
     gridtolerance="10"
     guidetolerance="10"
     inkscape:pageopacity="0"
     inkscape:pageshadow="2"
     inkscape:window-width="1366"
     inkscape:window-height="717"
     id="namedview18"
     showgrid="false"
     inkscape:zoom="18.958601"
     inkscape:cx="24.673374"
     inkscape:cy="21.341244"
     inkscape:window-x="0"
     inkscape:window-y="31"
     inkscape:window-maximized="1"
     inkscape:current-layer="svg16" />
  <path
     style="fill:#2a7fff;stroke-width:0.58837885"
     d="m 10.749242,15.481101 c -0.488943,0 -0.8825688,0.393625 -0.8825688,0.882569 v 7.648924 c 0,0.488944 0.3936258,0.882568 0.8825688,0.882568 h 8.825683 c 0.488943,0 0.882568,-0.393624 0.882568,-0.882568 V 20.188132 16.36367 c 0,-0.488944 -0.393625,-0.882569 -0.882568,-0.882569 z m 9.708251,4.707031 3.530273,3.530273 v -7.060546 z"
     id="path14"
     inkscape:connector-curvature="0" />
  <path
     style="opacity:0.98999999;fill:#2a7fff;fill-opacity:1;stroke:#ffd42c;stroke-width:0;stroke-linecap:round;stroke-linejoin:bevel;stroke-miterlimit:4;stroke-dasharray:none;stroke-dashoffset:0;stroke-opacity:1;paint-order:markers fill stroke"
     d="M 0.08097707,18.695207 V 5.5662684 H 8.7401527 17.39933 V 7.01108 8.4558914 h 7.288658 7.288658 V 20.14002 31.824146 H 16.028809 0.08097707 Z M 29.235613,20.139445 v -8.920714 l -13.175652,0.03198 -13.1756536,0.03199 -0.031981,8.888731 -0.031981,8.888731 H 16.02798 29.235619 Z"
     id="path860"
     inkscape:connector-curvature="0" />
</svg>
