<?xml version="1.0" encoding="UTF-8" standalone="no"?>
<svg
   xmlns:dc="http://purl.org/dc/elements/1.1/"
   xmlns:cc="http://creativecommons.org/ns#"
   xmlns:rdf="http://www.w3.org/1999/02/22-rdf-syntax-ns#"
   xmlns:svg="http://www.w3.org/2000/svg"
   xmlns="http://www.w3.org/2000/svg"
   xmlns:sodipodi="http://sodipodi.sourceforge.net/DTD/sodipodi-0.dtd"
   xmlns:inkscape="http://www.inkscape.org/namespaces/inkscape"
   width="32"
   height="32"
   version="1.1"
   id="svg16"
   sodipodi:docname="folder-music.svg"
   inkscape:version="0.92.4 (5da689c313, 2019-01-14)">
  <metadata
     id="metadata22">
    <rdf:RDF>
      <cc:Work
         rdf:about="">
        <dc:format>image/svg+xml</dc:format>
        <dc:type
           rdf:resource="http://purl.org/dc/dcmitype/StillImage" />
        <dc:title></dc:title>
      </cc:Work>
    </rdf:RDF>
  </metadata>
  <defs
     id="defs20" />
  <sodipodi:namedview
     pagecolor="#ffffff"
     bordercolor="#666666"
     borderopacity="1"
     objecttolerance="10"
     gridtolerance="10"
     guidetolerance="10"
     inkscape:pageopacity="0"
     inkscape:pageshadow="2"
     inkscape:window-width="1366"
     inkscape:window-height="717"
     id="namedview18"
     showgrid="false"
     inkscape:zoom="10.682727"
     inkscape:cx="19.334185"
     inkscape:cy="16.436924"
     inkscape:window-x="0"
     inkscape:window-y="31"
     inkscape:window-maximized="1"
     inkscape:current-layer="svg16">
    <inkscape:grid
       type="xygrid"
       id="grid854" />
  </sodipodi:namedview>
  <path
     style="fill:#ff2a7f;stroke-width:0.58201712"
     d="m 13.52641,21.447925 c -0.34921,-0.209525 -0.756622,-0.31429 -1.164033,-0.31429 -1.280439,0 -2.328069,1.047632 -2.328069,2.328069 0,1.280438 1.04763,2.328068 2.328069,2.328068 1.280436,0 2.328068,-1.04763 2.328068,-2.328068 v -5.82017 h 4.656136 v 3.806391 c -0.34921,-0.209525 -0.756623,-0.31429 -1.164035,-0.31429 -1.280436,0 -2.328068,1.047632 -2.328068,2.328069 0,1.280438 1.047632,2.328068 2.328068,2.328068 1.280438,0 2.328069,-1.04763 2.328069,-2.328068 V 15.313465 H 13.52641"
     id="path14"
     inkscape:connector-curvature="0" />
  <path
     style="opacity:0.98999999;fill:#ff2a7f;fill-opacity:1;stroke:#ffd42c;stroke-width:0;stroke-linecap:round;stroke-linejoin:bevel;stroke-miterlimit:4;stroke-dasharray:none;stroke-dashoffset:0;stroke-opacity:1;paint-order:markers fill stroke"
     d="M 0.15997078,18.849825 V 5.8628413 H 8.7972475 17.434523 v 1.4291892 1.4291892 h 7.270226 7.270225 V 20.279014 31.836808 H 16.067472 0.15997078 Z M 29.240871,20.278446 v -8.824259 l -13.142329,0.03164 -13.1423306,0.03164 -0.0319,8.792622 -0.0319,8.792622 H 16.066638 29.240871 Z"
     id="path860"
     inkscape:connector-curvature="0" />
</svg>
