<?xml version="1.0" encoding="UTF-8" standalone="no"?>
<svg
   xmlns:dc="http://purl.org/dc/elements/1.1/"
   xmlns:cc="http://creativecommons.org/ns#"
   xmlns:rdf="http://www.w3.org/1999/02/22-rdf-syntax-ns#"
   xmlns:svg="http://www.w3.org/2000/svg"
   xmlns="http://www.w3.org/2000/svg"
   xmlns:sodipodi="http://sodipodi.sourceforge.net/DTD/sodipodi-0.dtd"
   xmlns:inkscape="http://www.inkscape.org/namespaces/inkscape"
   width="32"
   height="32"
   version="1.1"
   id="svg16"
   sodipodi:docname="folder-pictures.svg"
   inkscape:version="0.92.4 (5da689c313, 2019-01-14)">
  <metadata
     id="metadata22">
    <rdf:RDF>
      <cc:Work
         rdf:about="">
        <dc:format>image/svg+xml</dc:format>
        <dc:type
           rdf:resource="http://purl.org/dc/dcmitype/StillImage" />
        <dc:title></dc:title>
      </cc:Work>
    </rdf:RDF>
  </metadata>
  <defs
     id="defs20" />
  <sodipodi:namedview
     pagecolor="#ffffff"
     bordercolor="#666666"
     borderopacity="1"
     objecttolerance="10"
     gridtolerance="10"
     guidetolerance="10"
     inkscape:pageopacity="0"
     inkscape:pageshadow="2"
     inkscape:window-width="1366"
     inkscape:window-height="717"
     id="namedview18"
     showgrid="false"
     inkscape:zoom="23.791149"
     inkscape:cx="9.7385248"
     inkscape:cy="9.9596354"
     inkscape:window-x="0"
     inkscape:window-y="31"
     inkscape:window-maximized="1"
     inkscape:current-layer="svg16">
    <inkscape:grid
       type="xygrid"
       id="grid854" />
  </sodipodi:namedview>
  <path
     style="fill:#762cff;fill-opacity:1;stroke-width:0.5827924"
     d="m 10.803216,16.154665 c -0.451664,0 -0.8159083,0.364246 -0.8159083,0.81591 v 7.69286 c 0,0.451664 0.3642443,0.815909 0.8159083,0.815909 h 10.024032 c 0.451664,0 0.815909,-0.364245 0.815909,-0.815909 v -7.69286 c 0,-0.451664 -0.364245,-0.81591 -0.815909,-0.81591 z m 2.680847,3.496755 3.496755,3.496755 1.748377,-2.33117 1.748377,2.33117 v 1.165585 h -9.324679 v -2.33117 z"
     id="path14"
     inkscape:connector-curvature="0" />
  <path
     style="opacity:0.98999999;fill:#762cff;fill-opacity:1;stroke:#ffd42c;stroke-width:0;stroke-linecap:round;stroke-linejoin:bevel;stroke-miterlimit:4;stroke-dasharray:none;stroke-dashoffset:0;stroke-opacity:1;paint-order:markers fill stroke"
     d="M 0.08517623,18.982621 V 5.9783361 H 8.7339589 17.382742 v 1.4310943 1.4310934 h 7.279911 7.279911 V 20.413714 31.986906 H 16.013869 0.08517623 Z M 29.204818,20.413146 v -8.836014 l -13.159837,0.03168 -13.159839,0.03168 -0.031943,8.804337 -0.031943,8.804335 H 16.01304 29.204824 Z"
     id="path860"
     inkscape:connector-curvature="0" />
</svg>
