<?xml version="1.0" encoding="UTF-8" standalone="no"?>
<svg
   xmlns:dc="http://purl.org/dc/elements/1.1/"
   xmlns:cc="http://creativecommons.org/ns#"
   xmlns:rdf="http://www.w3.org/1999/02/22-rdf-syntax-ns#"
   xmlns:svg="http://www.w3.org/2000/svg"
   xmlns="http://www.w3.org/2000/svg"
   xmlns:sodipodi="http://sodipodi.sourceforge.net/DTD/sodipodi-0.dtd"
   xmlns:inkscape="http://www.inkscape.org/namespaces/inkscape"
   width="16"
   height="16"
   version="1.1"
   id="svg7"
   sodipodi:docname="folder-publicshare.svg"
   inkscape:version="0.92.4 (5da689c313, 2019-01-14)">
  <metadata
     id="metadata11">
    <rdf:RDF>
      <cc:Work
         rdf:about="">
        <dc:format>image/svg+xml</dc:format>
        <dc:type
           rdf:resource="http://purl.org/dc/dcmitype/StillImage" />
      </cc:Work>
    </rdf:RDF>
  </metadata>
  <sodipodi:namedview
     pagecolor="#ffffff"
     bordercolor="#666666"
     borderopacity="1"
     objecttolerance="10"
     gridtolerance="10"
     guidetolerance="10"
     inkscape:pageopacity="0"
     inkscape:pageshadow="2"
     inkscape:window-width="640"
     inkscape:window-height="480"
     id="namedview9"
     showgrid="false"
     inkscape:zoom="14.75"
     inkscape:cx="7.2260522"
     inkscape:cy="8"
     inkscape:window-x="0"
     inkscape:window-y="31"
     inkscape:window-maximized="0"
     inkscape:current-layer="svg7" />
  <defs
     id="defs3">
    <style
       id="current-color-scheme"
       type="text/css">
   .ColorScheme-Text { color:#444444; } .ColorScheme-Highlight { color:#4285f4; }
  </style>
  </defs>
  <path
     style="fill:#5f5fd3"
     class="ColorScheme-Text"
     d="m 8,0 a 8,8 0 0 0 -8,8 8,8 0 0 0 8,8 8,8 0 0 0 5.277344,-2 L 8,14 A 6,6 0 0 1 2,8 6,6 0 0 1 8,2 l 0,1 a 5,5 0 0 0 -5,5 5,5 0 0 0 5,5 l 3.308594,0 2.927734,0 a 8,8 0 0 0 0.683594,-1 L 8,12 C 5.790861,12 4,10.209139 4,8 4,5.790861 5.790861,4 8,4 8.337519,4.00126 8.673523,4.045229 9,4.1308594 L 9,5.1757812 C 8.679075,5.0608002 8.3409,5.0014 8,5 6.343146,5 5,6.343146 5,8 c 0,1.656854 1.343146,3 3,3 l 7.410156,0 a 8,8 0 0 0 0.324219,-1 L 8,10 A 2,2 0 0 1 6,8 2,2 0 0 1 8,6 2,2 0 0 1 9.730469,7 L 8,7 A 1,1 0 0 0 7,8 1,1 0 0 0 8,9 l 7.929688,0 a 8,8 0 0 0 0.07031,-1 8,8 0 0 0 -8,-8 z"
     id="path5" />
</svg>
