#define desk_toggled_width 6
#define desk_toggled_height 6
static unsigned char desk_toggled_bits[] = {
   0x3f, 0x3f, 0x33, 0x33, 0x3f, 0x3f };
